<mxfile host="app.diagrams.net" modified="2024-03-12T20:42:16.795Z" agent="Mozilla/5.0 (Windows NT 10.0; Win64; x64) AppleWebKit/537.36 (KHTML, like Gecko) Chrome/122.0.0.0 Safari/537.36" etag="mM6GiGW_zbqdLXQva9Ex" version="24.0.5" type="device">
  <diagram name="Seite-1" id="NHCFSXXY_itO8ZmDo5FK">
    <mxGraphModel dx="1073" dy="778" grid="1" gridSize="10" guides="1" tooltips="1" connect="1" arrows="1" fold="1" page="1" pageScale="1" pageWidth="827" pageHeight="1169" math="0" shadow="0">
      <root>
        <mxCell id="0" />
        <mxCell id="1" parent="0" />
      </root>
    </mxGraphModel>
  </diagram>
</mxfile>
